<svg width="300" height="133" fill="none" xmlns="http://www.w3.org/2000/svg"><g clip-path="url(#clip0)"><g clip-path="url(#clip1)"><path fill-rule="evenodd" clip-rule="evenodd" d="M114.73 29.9l.12.2.01.06.02.1.02.09v.08l-.01.14-.03.08a.7.7 0 01-.03.08l-.03.05-.01.02-.01.02-3.83 5.75a.8.8 0 01-.66.34h-9.98a.8.8 0 01-.63-.3l-4.81-6.05a.77.77 0 01-.1.24l-.01.02-3.82 5.74a.81.81 0 01-.66.35h-7.71a.78.78 0 01-.8-.77v-4.05L79.2 36a.78.78 0 01-.42.31l-.2.06c-2.45.74-4.38 1.31-6.84 1.31-4.3 0-8.46-1.58-11.66-4.44a14.24 14.24 0 01-4.31-6.59c-1.67 4.3-5.25 7.04-6.14 7.67-3 2.13-6.76 3.36-10.29 3.36-2.54 0-7.26-.45-10.38-3.43a10.27 10.27 0 01-3.06-6.12c-1.6 3.26-4.24 5.42-5.5 6.44l-.25.21c-2.27 1.88-5.44 2.9-8.93 2.9-3.77 0-7.64-1.22-10.87-3.42a.76.76 0 01-.23-1.02L5.9 23.8c-2.54-1.12-4.71-2.97-4.71-7.6 0-3.95 1.29-7.9 3.55-10.81A13.73 13.73 0 0116.49.02c2.42.07 5.13.67 7.44 1.63 1 .36 1.76.7 1.97 1 .1.12.15.26.16.4v.16c0 .05-.02.1-.04.16v.02a40.8 40.8 0 01-5.25 9.1c.62.21 1.25.47 1.86.8l.04.01.42.23.27.15.16.1.16.1.3.2.59.47.17.15a3.07 3.07 0 00.25.23l.13.13.28.3.07.07.13.15v-8.3c0-.14.04-.29.12-.41l3.83-5.76.12-.13.02-.02c.02 0 .04-.02.05-.04l.08-.04.02-.02.03-.02.12-.04.01-.01.03-.01.18-.02h7.7a.78.78 0 01.8.77v15.19c0 4.59.7 7.08 4.44 7.08l.6-.03.02-1.3V7.28c0-.14.05-.29.13-.41l3.83-5.76.12-.13.01-.02.03-.01.03-.03.07-.05.03-.01.02-.02.12-.04.02-.01.03-.01.18-.02h7.7a.79.79 0 01.8.77v12.3c1.32-3.22 3.37-6.82 6.12-9.2C65.93 2.1 68.86 0 75.11 0h.25c2.4.01 4.79.5 7.3 1.5a.78.78 0 01.49.72V5l2.58-3.89.12-.13.02-.02.02-.01a1 1 0 00.04-.03L86 .87a.1.1 0 00.02-.01l.03-.02.12-.04.01-.01.04-.01.17-.02h7.71a.78.78 0 01.79.77v9.74l8-10.2a.8.8 0 01.61-.3h9.56c.08 0 .15 0 .22.03.03 0 .05.02.07.03l.05.01.08.04.07.05.05.04.05.05.02.03.02.04a.54.54 0 01.08.11l.01.03.01.04c.03.06.05.14.05.2V1.65a2.07 2.07 0 00-.04.15l-.05.1-.03.05-3.82 5.75-.03.04a.58.58 0 00-.03.04l-6.99 8.1 11.88 14.04zM68.5 16.05c0 4.17 2.97 7.07 7.23 7.07a8.27 8.27 0 006.06-2.78l.02-.02V13.5l-2.59 3.9a.8.8 0 01-1.3.03 7.7 7.7 0 00-6.13-2.87c-1.17 0-2.27.24-3.24.7 0 .05 0 .08-.02.12a5.7 5.7 0 00-.03.67zM196.1 2.07l.02.06v.03c0 .02.02.04.04.06v.16l-.01.05-.02.1-.02.05-.02.04-.04.09-3.83 5.75-6.98 9.58v13.13c0 .07-.01.13-.03.2l-.01.04a.9.9 0 01-.08.17l-.01.02h-.01l-3.82 5.75a.8.8 0 01-.66.34h-7.7a.79.79 0 01-.8-.76V23.3l-8.83-12.12 3.09 19.87c.01.08 0 .17-.01.25l-.01.05a.93.93 0 01-.1.22v.02l-3.84 5.75a.8.8 0 01-.66.34h-7.7a.77.77 0 01-.78-.67l-1.5-11.47-2.53 5.91a.5.5 0 01-.07.13l-3.83 5.75a.8.8 0 01-.66.34h-3.06a.79.79 0 01-.74-.48l-3.6-8.78-.42 2.86a.7.7 0 01-.08.23l-.02.03v.02l-.02.02-3.83 5.75a.8.8 0 01-.66.34h-7.67a.79.79 0 01-.76-.56.76.76 0 01-.01-.33l5.03-28.86c.02-.1.06-.2.12-.29l3.82-5.75.11-.12.04-.03.02-.02.02-.01.17-.1.06-.02c.08-.02.16-.04.25-.04h7.58c.33 0 .61.19.73.49l4.6 11.77 2.5-6.05c.02-.05.04-.1.07-.13l3.82-5.76.03-.04a.9.9 0 01.22-.19l.13-.05a.41.41 0 00.07-.03.78.78 0 01.21-.03h7.67c.4 0 .72.28.78.65l.58 3.75 2.67-4.05c0-.02.03-.04.05-.05a.42.42 0 01.06-.07.73.73 0 01.13-.1.2.2 0 01.03-.03l.07-.02a.5.5 0 00.06-.03l.06-.02a.76.76 0 01.2-.03h9.25a.78.78 0 01.65.33l4.9 6.94 4.9-6.94a.8.8 0 01.64-.33h9.25c.07 0 .14 0 .2.03a1.56 1.56 0 00.2.09c.02 0 .04.02.06.04l.1.08.03.03c0 .01 0 .03.02.03l.02.04.05.06v.02l.02.05v.03l.03.05zm92.03 12.49c-1.17 0-2.27.24-3.24.7a.46.46 0 000 .21l-.03.57c0 4.17 2.97 7.08 7.23 7.08a8.2 8.2 0 006.05-2.79.8.8 0 01.87-.23c.3.12.5.4.5.72v9c0 .08-.01.15-.03.23l-.04.08a.64.64 0 01-.05.11L295.57 36a.74.74 0 01-.42.32l-.2.06c-2.45.74-4.38 1.31-6.84 1.31-4.3 0-8.45-1.59-11.66-4.44a14.67 14.67 0 01-3.35-4.26v1.41c0 .07-.01.13-.03.2l-.01.05a.77.77 0 01-.08.16l-.01.02h-.01l-3.82 5.75a.8.8 0 01-.66.35h-7.7a.78.78 0 01-.8-.77v-4.5l-3.26 4.91a.8.8 0 01-.66.35h-7.7a.79.79 0 01-.8-.77V25.07h-5.73v5.32l-.03.19-.01.05a.83.83 0 01-.08.16v.02h-.02l-3.82 5.75a.81.81 0 01-.66.35h-7.7a.79.79 0 01-.8-.77v-4.65l-2.98 4.5a.78.78 0 01-.43.31l-.2.06c-2.44.74-4.38 1.31-6.83 1.31-4.3 0-8.46-1.59-11.67-4.44-3.32-2.93-5-6.8-5-11.48 0-9.62 5.16-14.33 7.64-16.59l.36-.34.18-.16A17.85 17.85 0 01221.86 0c2.4 0 4.81.5 7.34 1.5a.78.78 0 01.48.72v3.4l3-4.5a1.56 1.56 0 01.13-.15l.02-.01.03-.03.08-.05.02-.01.03-.02a.6.6 0 01.12-.04l.01-.01.04-.01.17-.02h7.71c.43 0 .79.34.79.77V11.9h5.71V7.28c0-.14.05-.29.13-.41l3.83-5.75.12-.14.02-.01.02-.02.03-.03a.41.41 0 01.07-.04l.03-.02.02-.01.12-.05a.67.67 0 01.05-.02l.18-.02h7.7c.44 0 .8.35.8.77v4.5l3.26-4.91a1.66 1.66 0 01.16-.17l.03-.02a.38.38 0 01.08-.05l.02-.02.03-.01.11-.05h.02c0-.02.02-.02.03-.02l.18-.02h7.7c.44 0 .8.35.8.77v12.8c1.33-3.32 3.54-7.06 6.8-9.47A17.1 17.1 0 01291.68 0c2.42 0 4.82.5 7.37 1.5a.78.78 0 01.48.72v9c0 .07-.01.14-.04.2v.03l-.02.04-.02.03a.63.63 0 01-.05.12l-3.83 5.75a.81.81 0 01-1 .27.8.8 0 01-.3-.23 7.69 7.69 0 00-6.13-2.87zm-59.65 5.6a.91.91 0 01.23-.08V12.9l-3 4.5a.78.78 0 01-.63.34.76.76 0 01-.66-.31 7.7 7.7 0 00-6.13-2.87c-1.18 0-2.27.24-3.25.7v.1a5.77 5.77 0 00-.04.67c0 4.18 2.96 7.09 7.23 7.09a8.2 8.2 0 006.04-2.79.8.8 0 01.2-.16h.01z" fill="#EB3D3E"/><path d="M18.97 13.52L17 12.95c-1.41-.45-3.99-1.26-3.99-3.49 0-1.99 2.09-3.18 4.09-3.18a8.9 8.9 0 014.84 1.52l2.3-4.34a20.04 20.04 0 00-8.23-1.93c-5.64 0-9.44 3.58-9.44 8.92 0 5.1 2.83 6.14 7.45 7.41l.25.07c1.74.48 5.01 1.37 5.01 3.96 0 2.52-2.35 3.67-4.52 3.67-2.2 0-4.37-.83-6.6-2.56l-2.51 4.61a17.83 17.83 0 009.39 2.78c3.12 0 5.93-.9 7.91-2.54 1.86-1.53 2.8-3.95 2.8-7.18-.02-3.65-2.04-5.8-6.78-7.15zm30.2 3.2c0 3.02 0 8.62-6.02 8.62s-6.02-5.6-6.02-8.61V2.29h-6.14v15.47c0 3.78.22 7.11 2.87 9.63 2 1.9 5.38 3 9.29 3 3.9 0 7.29-1.1 9.28-3 2.65-2.52 2.87-5.85 2.87-9.64V2.29h-6.14v14.44zM64.6 5.98a14.08 14.08 0 00-4.15 10.04c0 4.23 1.51 7.71 4.5 10.34a15.99 15.99 0 0010.6 4.05c2.12 0 3.8-.47 6.03-1.14v-6.63a9.83 9.83 0 01-5.86 2.02c-5.2 0-8.81-3.54-8.81-8.61 0-5.08 3.65-8.77 8.69-8.77 2.24 0 4.36.74 5.98 2.04V2.74a17.17 17.17 0 00-6.26-1.21c-3.93 0-7.94 1.66-10.72 4.44zm36.06 8.73l10.71-12.4h-7.48l-9.08 11.6a.77.77 0 01-.62.3h-.08a.79.79 0 01-.8-.77V2.29h-6.13v27.33h6.14V17.87a.78.78 0 01.79-.77h.08c.24 0 .47.11.62.3l9.72 12.22h7.94l-11.8-13.95a.72.72 0 01-.01-.97zm53.3-11.64l-6.17 14.95a.81.81 0 01-1.18.34.8.8 0 01-.29-.35L140.5 3.06h-6.38l-4.77 27.33h6.06l2.38-15.96a.78.78 0 01.78-.65h.07a.79.79 0 01.73.48L146 30.39h2l6.92-16.14a.78.78 0 01.73-.47h.08a.78.78 0 01.78.67l2.07 15.94h6.1l-4.24-27.33h-6.46zm27.26 7.51c-.3.42-1 .42-1.3 0l-5.3-7.52h-7.31l10.05 13.8c.1.13.15.29.15.45v13.09h6.14V17.3a.7.7 0 01.14-.45l10.06-13.8h-7.31l-5.32 7.51zm29.91-4.6A14.08 14.08 0 00207 16.01c0 4.23 1.5 7.71 4.5 10.34a15.99 15.99 0 0010.6 4.05c2.12 0 3.8-.47 6.02-1.14v-6.63a9.83 9.83 0 01-5.86 2.02c-5.19 0-8.8-3.54-8.8-8.61 0-5.08 3.64-8.77 8.69-8.77 2.23 0 4.36.74 5.97 2.04V2.74a17.17 17.17 0 00-6.25-1.21c-3.94 0-7.94 1.66-10.73 4.44zm41.83 6.7a.78.78 0 01-.8.77h-11.12a.79.79 0 01-.79-.77V2.3h-6.14v27.33h6.14V18.56c0-.42.35-.76.79-.76h11.13c.43 0 .79.34.79.76v11.07h6.14V2.29h-6.14v10.38zM271.52 2.3h-6.14v27.33h6.14V2.29zm20.44 4.97c2.24 0 4.36.74 5.98 2.04V2.74a17.17 17.17 0 00-6.26-1.21 15.5 15.5 0 00-10.72 4.43A14.08 14.08 0 00276.82 16c0 4.23 1.5 7.71 4.5 10.34a15.98 15.98 0 0010.6 4.05c2.11 0 3.79-.47 6.02-1.14v-6.63a9.85 9.85 0 01-5.86 2.02c-5.2 0-8.81-3.54-8.81-8.61 0-5.07 3.66-8.76 8.7-8.76z" fill="#F79BC1"/></g><path d="M219.98 128.56a51.44 51.44 0 0025.64-68.28c-11.87-25.9-42.6-37.32-68.62-25.5a51.44 51.44 0 00-25.63 68.27c11.86 25.9 42.59 37.32 68.61 25.51z" fill="#fff"/><path d="M170.57 74.89c-1.05.47-2.3.53-3.73.17l-.18 2.8c1.78.27 3.57.02 5.15-.7a6.22 6.22 0 003.2-2.96c.56-1.14.43-2.53-.29-4.1-.09-.22-.2-.42-.34-.6-.7-1.14-1.8-1.59-3.48-1.52-.08-.03-.19.02-.32.02-.05.02-.05.02-.12 0-.08-.04-.19.01-.31 0l-.06.03c-.05.02-.18.02-.23.04l-.05.03-1.02.14c-.78.1-2.17.23-2.68-.87-.45-.99.28-2.02 1.23-2.45a4.59 4.59 0 012.64-.31l.12-2.65-.38-.01c-1.28.02-2.54.27-3.72.74l-.21.1c-2.74 1.24-3.7 3.82-2.51 6.44 1.15 2.5 2.75 2.41 5.25 2.04h.13c.96-.12 2.73-.42 3.3.84.5 1.22-.34 2.3-1.39 2.78zm14.69-3.82c1.89-.86 3.28-2.12 3.79-3.5.65-1.62.2-3.18-.55-4.8l-.24-.52-3.47-7.58-2.95 1.34 3.24 7.05c.67 1.47 1.94 4.24-.95 5.55-2.9 1.3-4.16-1.46-4.83-2.93l-3.24-7.05-2.94 1.33 3.48 7.58c.83 1.83 1.7 3.46 3.52 4.09 1.43.49 3.24.3 5.13-.56zm9.54-6.74a8.19 8.19 0 008.63-2.2l-1.48-3.25a5.08 5.08 0 01-2.33 2.26 4.45 4.45 0 01-6.15-2.33l-.16-.37a4.42 4.42 0 012.35-5.8 5.19 5.19 0 013.34-.32l-1.48-3.24a8.13 8.13 0 00-7.4 5.31 7.71 7.71 0 00.25 5.83 6.96 6.96 0 004.43 4.11zm14.17-5.23l-2.35-5.12a.4.4 0 01.2-.53l.05-.03c.1-.04.24-.04.39.02l7.43 3.89 3.78-1.72-.48-.22-7.9-3.8-.4-.2c-.18-.1-.28-.32-.22-.47l2.37-8.4-3.58 1.62-1.8 7.57c0 .13-.08.23-.24.3l-.05.03a.4.4 0 01-.53-.2l-2.52-5.5-2.94 1.34 6.13 13.39 2.94-1.34-.28-.63zm-13.65 30.32l-.01-1.13-.25-8.29c-.02-.18.12-.3.27-.37l.06-.03c.2-.1.44 0 .5.15l4.6 7.39 2.94-1.34-6.66-10.1-1.52-2.35-3.1 1.4.41 8.66c.02.18-.09.36-.27.38a.44.44 0 01-.49-.1l-6.14-6.05-3.04 1.38 3.71 14.48 2.9-1.31-.51-1.8-1.91-6.52c-.04-.23.07-.4.22-.48l.06-.02a.43.43 0 01.48.1l6.77 6.46 1-.45-.02-.06zm12.3-21.75l-.84 4.8a.43.43 0 01-.24.3.43.43 0 01-.39 0l-4.2-2.52-3.52 1.6 7.92 4.54c.08.03.13.14.15.19l2.95 6.43 2.94-1.34-2.82-6.16-.13-.27c-.02-.05-.07-.15-.04-.23l1.74-8.94-3.51 1.6zm-22.16 35.7a7.7 7.7 0 00.26 5.82 7.26 7.26 0 004.48 4.1 8.2 8.2 0 008.63-2.22l-1.49-3.24c-.35.6-.79 1.18-1.3 1.6a4.4 4.4 0 01-1.03.66 4.45 4.45 0 01-6.14-2.33l-.17-.37a4.42 4.42 0 012.36-5.8 5.2 5.2 0 013.34-.32l-1.49-3.24a8.17 8.17 0 00-7.45 5.34zm21.58-5.82a.39.39 0 01-.2.54l-1.84.83-3.52 1.6a.41.41 0 01-.3.01.42.42 0 01-.14-.08.4.4 0 01-.1-.13l-2.32-5.07-2.94 1.33 6.13 13.39 2.94-1.34-1.2-2.61-1.29-2.82a.39.39 0 01-.01-.31.4.4 0 01.21-.23l5.36-2.43a.4.4 0 01.54.2l2.49 5.44 2.94-1.34-6.13-13.38-2.94 1.33 2.32 5.07zm9.96 5.53l2.94-1.34-1.4-3.03-.73-1.62-4.03-8.78-2.94 1.33 6.16 13.44zm2.14-15c-.72 1.9-.58 4 .25 5.83a7.26 7.26 0 004.48 4.09 8.19 8.19 0 008.63-2.21l-1.48-3.24c-.52 1-1.36 1.8-2.38 2.28a4.45 4.45 0 01-6.15-2.33l-.17-.37a4.42 4.42 0 012.36-5.8 5.19 5.19 0 013.34-.32l-1.48-3.24a8.57 8.57 0 00-3.26.78 8.03 8.03 0 00-4.14 4.54z" fill="#F79BC1"/><path d="M219.72 55.3c-.02-.06-.1-.08-.12-.14l-8.84-4.32 1.55-5.5.02-.08.55-3.66-.03-.05-.02-.05-.02-.05-.03-.05-.02-.06-.02-.05-.03-.05-.02-.05-.08-.03-.02-.05-.08-.03-.05.02s-.06.03-.08-.03l-.05.03-.1.04-4.58 2.08c-.1.05-.18.15-.24.3l-1.53 6.76-2.19-4.76a.39.39 0 00-.22-.21.4.4 0 00-.31.01L199.48 47l-.1.05-.06.02s-.05.03-.03.08l-.02.07-.41 2.71-.65-1.4a.48.48 0 00-.38-.28c-1.42.08-2.7.34-3.85.87l-.1.05c-3 1.35-3.94 3.04-4.8 4.89a13.29 13.29 0 00-.89 5.83l-2.73-5.96a.4.4 0 00-.22-.21.4.4 0 00-.32.01l-3.67 1.67-.1.05-.06.02s-.05.03-.03.08l-.03.07-.54 3.66c-.03.08.02.18.04.24l3.43 7.47.28.63-.26.12c-1.78.8-2.7-.23-3.73-2.48l-3.4-7.42a.4.4 0 00-.23-.21.4.4 0 00-.31.01l-3.68 1.67-.1.05-.06.02s-.05.03-.03.08l-.03.07-.54 3.66c-.03.08.02.18.04.23l1.87 4.08-.15-.05c-.08-.03-.15-.06-.18-.11l-.15-.06c-.08-.03-.15-.06-.2-.03-.08-.03-.14 0-.21-.04-.08-.02-.13 0-.2-.03-.08-.03-.14 0-.21-.03-.08-.03-.13 0-.2-.04-.06.03-.14 0-.14 0-.07-.03-.13 0-.26 0l-.05.02c-.39-.02-.7 0-1.06.03.31-1.4.59-4.11.49-5.58l-.05-.1-.03-.06-.02-.05c-.02-.06-.12-.14-.15-.19-.17-.1-.61-.1-1.16-.04-1.32.03-2.78.31-3.93.84l-.21.1-.37.16a7.25 7.25 0 00-3.9 4.93 9.53 9.53 0 00.74 6.04c1.03 2.25 2.51 2.71 3.96 2.69l-.67 5.86c-.04.2.11.39.34.48 2.08.38 4.18.12 5.97-.7a7.22 7.22 0 003.6-3.33l.06-.16c.34-.78 1.18-2.42 1.2-4.33a5.4 5.4 0 002.83 2.32c2.14.8 4.55-.05 5.76-.6a9.04 9.04 0 004.17-3.9 9.85 9.85 0 001.22-5.1 7.58 7.58 0 003.53 2.3c2.22.7 4.53.6 6.58-.33a11.21 11.21 0 002.97-2.1l-.03-.06c.1-.04.11-.17.14-.25l.4-2.7.99 2.13a.39.39 0 00.23.22.4.4 0 00.3-.02l3.68-1.67c.1-.04.24-.17.25-.3l.54-3.65c-.02-.05.03-.08 0-.13l3.68 1.93c.1.08.23.08.39.01l4.78-2.17c.1-.04.24-.17.24-.3l.55-3.65-.02-.06-.03-.05-.02-.05-.03-.05c0-.13 0-.13-.02-.18zM200.81 64a8.19 8.19 0 01-6 .33 7.27 7.27 0 01-4.49-4.09 7.46 7.46 0 01-.25-5.82 8.03 8.03 0 017.4-5.32l1.48 3.25a5.06 5.06 0 00-3.34.31c-2.2 1-3.17 3.2-2.45 5.47.05.1.1.2.1.34l.16.36a4.45 4.45 0 006.15 2.33c1-.47 1.83-1.27 2.32-2.26l1.5 3.24a8.63 8.63 0 01-2.58 1.87zm.8-6.42a.13.13 0 00-.06.15 4.25 4.25 0 01-2.27 2.67 3.64 3.64 0 01-5.05-1.87l-.12-.26-.04-.1c.37-.43.83-.83 1.4-1.09a3.94 3.94 0 013.6.08c.1.08.28.06.38.01.1-.05.24-.17.24-.3l.41-2.71 1.56 3.4-.05.02zm-16.53 5.48L181.84 56l2.95-1.33 3.47 7.58.24.52c.69 1.65 1.2 3.18.55 4.8-.51 1.37-1.9 2.64-3.8 3.5-1.89.85-3.75 1.07-5.13.56-1.84-.69-2.69-2.26-3.52-4.09l-3.48-7.58 2.94-1.33 3.24 7.05c.67 1.47 1.94 4.24 4.83 2.93s1.62-4.08.95-5.55zm-10.7 6.43c.15.19.25.4.34.6.72 1.58.8 3 .3 4.1a6.53 6.53 0 01-3.21 2.98c-1.53.69-3.37.96-5.15.69l.18-2.8c1.44.36 2.68.3 3.73-.17 1.05-.48 1.9-1.56 1.34-2.76-.57-1.25-2.37-1-3.3-.84h-.13c-2.5.37-4.1.47-5.25-2.04-1.13-2.46-.32-4.84 2.05-6.17l.53-.24.21-.1c1.13-.45 2.5-.76 3.72-.74l.39.01-.12 2.65a4.74 4.74 0 00-2.65.31c-.94.44-1.68 1.46-1.22 2.46.5 1.1 1.9.96 2.68.86l1.01-.14.05-.03c.06-.02.19-.01.24-.04l.05-.02.31-.02c.05-.02.05-.02.13 0h.31c1.66-.13 2.75.32 3.46 1.45zm37.41-27.08l-2.37 8.4c-.03.21.06.42.22.48l.4.19 7.9 3.8.49.23-3.79 1.71-7.43-3.89c-.1-.08-.23-.08-.39-.01l-.05.02a.4.4 0 00-.21.23.4.4 0 00.01.3l2.35 5.13.29.63-2.94 1.33-6.09-13.28 2.94-1.33 2.5 5.43a.4.4 0 00.22.22.4.4 0 00.3-.02l.06-.02c.1-.05.19-.15.24-.3l1.75-7.68 3.58-1.62.02.05zm-2.9 45.2l3.69-1.66c.1-.05.23-.17.24-.3l.54-3.66.03-.08-.05-.1-2.97-6.48 1.2-6.23.56-3.66-.03-.05-.02-.06-.03-.05-.02-.05-.03-.05-.02-.05-.02-.06-.03-.05s-.02-.05-.07-.03l-.03-.05-.07-.03-.06.03s-.05.02-.07-.03l-.06.02-.1.05-4.41 2c-.1.05-.24.17-.25.3l-.8 4.47-3.93-2.32c-.1-.08-.28-.06-.38-.02l-4.42 2-.1.05-.05.03-.06.02-.05.03s-.05.02-.03.07l-.03.08.03.05-.35 2.56-1.1-1.71c-.15-.19-.36-.22-.51-.15l-3.68 1.67-.1.05-.06.02s-.05.03-.03.08l-.05.02-.03.08.02.05-.54 3.66s.02.05-.03.07l.16 3.53-4.87-4.8a.43.43 0 00-.49-.1l-3.62 1.65-.1.05-.06.02c-.05.03-.03.08-.08.1l-.03.08-.54 3.66c-.03.07 0 .12.02.18l4.22 15.32c.05.1.1.2.25.26.1.08.23.09.34.04l3.68-1.67c.1-.05.23-.17.24-.3l.54-3.65c-.02-.06.03-.08 0-.13l-.43-1.51 3.7 3.5c.13.13.33.17.49.1l1.42-.65c.1-.05.23-.17.24-.3l.54-3.66s-.02-.05.03-.07l-.13-3.48 3.32 5.31c.1.21.36.22.51.15l3.68-1.67c.1-.05.24-.17.25-.3l.54-3.66c-.02-.05.03-.07 0-.12a4.25 4.25 0 01-.04-.1l-6-9.22 6.98 4.03 3.07 6.69c.07.16.33.3.54.2zm-2.09-15.08l.85-4.8 3.52-1.6L209.4 75c-.03.08.02.18.05.23l.12.27 2.82 6.16-2.94 1.34-2.92-6.38c-.03-.05-.07-.16-.15-.18l-7.92-4.56 3.51-1.6 4.2 2.52a.53.53 0 00.63-.28zm-15.1 11.21a.44.44 0 00.67-.06.48.48 0 00.09-.22l-.41-8.66 3.1-1.4 1.51 2.34 6.67 10.11-2.94 1.34-4.6-7.4c-.1-.2-.35-.21-.5-.14l-.06.02a.5.5 0 00-.27.38l.24 8.29.01 1.13-.94.43-6.77-6.47a.44.44 0 00-.49-.09l-.05.02c-.21.1-.3.33-.23.48l1.99 6.55.5 1.8-2.88 1.3-3.83-14.42 3.05-1.39 6.14 6.06zm35.1-1.78a9.54 9.54 0 00-3.85.86 8.79 8.79 0 00-4.57 4.98 11.8 11.8 0 00-1.13 6.13l-2.88-6.27a.4.4 0 00-.22-.22.4.4 0 00-.31.02l-3.68 1.67-.1.05-.06.02s-.05.02-.03.08l-.02.07-.51 3.46-1.13-2.46a.4.4 0 00-.23-.22.4.4 0 00-.3.02l-3.68 1.67-.11.05-.05.02s-.06.02-.03.08l-.03.07-.54 3.66c-.03.07.01.18.04.23l1.03 2.25-2.73 1.24-2.33-5.07a.39.39 0 00-.22-.22.4.4 0 00-.31.02l-3.68 1.67-.1.05-.06.02s-.05.02-.03.08l-.02.07-.42 2.84-.76-1.67a.48.48 0 00-.38-.27 9.54 9.54 0 00-3.86.86 9.07 9.07 0 00-4.72 4.93l-.14.38c-.71 1.64-2.13 5.06.06 9.82a7.98 7.98 0 005 4.55c2.22.7 4.53.6 6.57-.33a11.23 11.23 0 002.97-2.1l.09-.1c.1-.06.1-.18.13-.26l.42-2.84 1.05 2.3a.4.4 0 00.38.24.4.4 0 00.16-.04l3.67-1.67c.1-.05.24-.17.25-.3l.54-3.65.03-.08-.05-.1-1.2-2.62 2.74-1.24 2.49 5.44c.02.05.05.1.09.13a.4.4 0 00.29.1.4.4 0 00.15-.03l3.68-1.67c.1-.05.24-.17.25-.3l.5-3.45 1.13 2.45a.4.4 0 00.38.24c.06 0 .11-.02.16-.04l3.67-1.67c.11-.05.24-.17.25-.3l.54-3.66.03-.07-.05-.1-.3-.69a9.17 9.17 0 009.16 1.02 11.27 11.27 0 002.97-2.1l.08-.1c.1-.05.1-.18.13-.25l.55-3.66-.03-.05-.02-.05-.05-.1-2-4.4a.43.43 0 00-.81.05 4.35 4.35 0 01-2.27 2.67 3.64 3.64 0 01-5.05-1.88l-.12-.26-.04-.1c.37-.43.83-.82 1.4-1.08a3.93 3.93 0 013.6.07c.1.08.28.06.38.01.1-.04.24-.17.24-.3l.55-3.65-.03-.05-.02-.06-.05-.1-2.01-4.4c-.17-.23-.3-.36-.48-.34zm-29.85 24.72a4.25 4.25 0 01-2.27 2.67 3.64 3.64 0 01-5.05-1.87l-.12-.27-.05-.1c.38-.42.83-.82 1.41-1.08a3.93 3.93 0 013.59.08c.1.08.28.06.39 0 .1-.04.24-.16.24-.3l.41-2.83 1.6 3.5c-.1.05-.15.08-.15.2zm-2.6-5.39a5.07 5.07 0 00-3.35.32c-2.2 1-3.16 3.2-2.44 5.47.05.1.1.2.09.34l.17.36a4.45 4.45 0 006.14 2.33 5.03 5.03 0 002.33-2.26l1.49 3.24c-.91.8-1.63 1.44-2.63 1.89a8.3 8.3 0 01-6 .33 7.26 7.26 0 01-4.48-4.1 7.48 7.48 0 01-.26-5.82 8.04 8.04 0 017.4-5.31l1.49 3.24.05-.03zm16.5 4.58l-2.5-5.44a.39.39 0 00-.22-.22.4.4 0 00-.3.02l-5.37 2.43a.4.4 0 00-.21.23.38.38 0 00.01.3l1.3 2.83 1.2 2.61-2.94 1.34-6.14-13.39 2.94-1.33 2.33 5.07a.39.39 0 00.22.21c.05.02.1.03.16.03a.4.4 0 00.15-.04l3.52-1.6 1.84-.83a.4.4 0 00.22-.23.4.4 0 00-.02-.3l-2.32-5.08 2.94-1.33 6.13 13.38-2.94 1.34zm20.17-13.32l1.48 3.24c-.9.79-1.62 1.43-2.62 1.88a8.19 8.19 0 01-6 .33 7.27 7.27 0 01-4.48-4.1 7.76 7.76 0 01-.31-5.8 8.03 8.03 0 017.4-5.3l1.48 3.23a5.06 5.06 0 00-3.34.32c-2.2 1-3.17 3.2-2.45 5.47.05.1.1.2.1.34l.16.36a4.45 4.45 0 006.15 2.33 5.16 5.16 0 002.43-2.3zM217 103.08l-6.13-13.39 2.94-1.33 4 8.73.74 1.62 1.39 3.03-2.94 1.34z" fill="#EB3D3E"/></g><defs><clipPath id="clip0"><path fill="#fff" d="M0 0h300v133H0z"/></clipPath><clipPath id="clip1"><path fill="#fff" d="M0 0h299.51v37.67H0z"/></clipPath></defs></svg>