<svg width="610" height="272" fill="none" xmlns="http://www.w3.org/2000/svg"><g clip-path="url(#clip0)"><g clip-path="url(#clip1)"><path fill-rule="evenodd" clip-rule="evenodd" d="M233.28 61.16c.1.14.19.27.25.41l.02.1c0 .07.02.13.04.2.02.06.03.13.03.2v.17c0 .1 0 .18-.02.27l-.06.18c-.01.06-.03.1-.06.16l-.06.1-.02.04c0 .01 0 .03-.02.04l-7.78 11.76a1.65 1.65 0 01-1.34.7h-20.3a1.63 1.63 0 01-1.27-.6l-9.8-12.4v.02c-.03.17-.1.33-.19.47V63l-.02.02-7.77 11.75a1.66 1.66 0 01-1.34.7h-15.69a1.59 1.59 0 01-1.6-1.57v-8.26l-5.26 7.95c-.2.31-.5.54-.86.65l-.4.11c-4.98 1.52-8.91 2.7-13.9 2.7a35.6 35.6 0 01-23.72-9.1 29.14 29.14 0 01-8.77-13.47c-3.39 8.8-10.67 14.4-12.48 15.7a36.94 36.94 0 01-20.92 6.87c-5.16 0-14.77-.92-21.1-7.03-3.8-3.62-5.48-7.9-6.22-12.51-3.25 6.66-8.63 11.1-11.18 13.18l-.52.43c-4.61 3.83-11.05 5.93-18.16 5.93-7.66 0-15.52-2.5-22.1-7.01a1.56 1.56 0 01-.47-2.09l11.76-19.28C6.81 46.39 2.4 42.6 2.4 33.13c0-8.07 2.63-16.14 7.22-22.11C15.15 3.8 23.1 0 32.52 0a44 44 0 0116.13 3.38c2.05.73 3.6 1.43 4.02 2.02.2.26.3.55.32.85v.3l-.08.34v.04c-1.93 5.35-7.25 14.36-10.68 18.62 1.27.43 2.53.96 3.78 1.61l.07.04c.3.15.59.3.87.47l.54.3.33.21.33.22.6.41 1.2.95c.13.09.24.2.36.3a6.55 6.55 0 00.5.48l.27.25c.2.2.38.4.56.61l.14.15c.1.1.18.2.26.3V14.9c0-.3.1-.6.26-.85L60.1 2.28l.24-.28.04-.03.1-.08c.06-.04.1-.08.16-.1a.43.43 0 00.05-.03l.05-.03c.08-.04.16-.08.24-.1l.03-.01a.13.13 0 01.07-.03c.12-.02.24-.04.36-.04H77.1a1.6 1.6 0 011.6 1.57V34.2c0 9.4 1.43 14.48 9.03 14.48.42 0 .82-.02 1.23-.06.02-.79.04-1.65.04-2.65V14.89c0-.3.1-.6.26-.85l7.78-11.76.24-.28a.28.28 0 01.04-.03l.05-.03.06-.05c.05-.04.1-.08.15-.1l.05-.03a.42.42 0 01.05-.03c.09-.04.16-.08.24-.1a.6.6 0 00.03-.01 2.26 2.26 0 01.43-.06h15.67a1.6 1.6 0 011.61 1.56V28.3c2.69-6.6 6.86-13.96 12.46-18.83C134.06 4.3 140.02 0 152.74 0h.5c4.87.02 9.73 1.02 14.84 3.08a1.59 1.59 0 01.99 1.46v5.7l5.25-7.96.24-.28a.27.27 0 01.04-.03l.04-.03.07-.05c.05-.04.1-.08.15-.1a.2.2 0 00.05-.03.48.48 0 01.05-.03c.08-.04.16-.08.25-.1l.02-.01a2.22 2.22 0 01.43-.06h15.68a1.59 1.59 0 011.6 1.56v19.92l16.25-20.86a1.63 1.63 0 011.26-.6h19.44c.16 0 .3.01.44.05l.14.06.1.04c.06.02.11.04.17.08.06.02.1.06.13.1l.1.08.1.1c.03.01.04.04.06.06l.05.07.14.2v.02c.01 0 .02 0 .02.02l.02.06c0 .03 0 .05.02.07.06.14.1.29.1.43v.24l-.02.1-.02.1-.06.21c-.02.06-.04.12-.08.18l-.06.12-7.79 11.76-.06.08a.9.9 0 00-.06.08l-14.2 16.55 24.15 28.72zm-94.03-28.34c0 8.52 6.04 14.47 14.71 14.47 4.57 0 9.29-2.2 12.32-5.7l.04-.03V27.62l-5.26 7.95a1.64 1.64 0 01-2.63.08c-2.79-3.67-7.44-5.87-12.47-5.87-2.4 0-4.62.49-6.6 1.45l-.03.23c-.05.45-.08.9-.08 1.36zm259.5-28.58l.04.12.01.05c.01.05.03.1.07.13.02.07.02.15.02.23l-.02.1c0 .04 0 .07-.02.1a.72.72 0 01-.08.3.58.58 0 00-.04.1.65.65 0 01-.08.17l-7.78 11.76-14.2 19.6v26.85c0 .13-.03.27-.07.4l-.02.1c-.04.11-.1.22-.16.33l-.02.04-.02.02-7.76 11.74a1.65 1.65 0 01-1.35.7H351.6a1.6 1.6 0 01-1.6-1.56V47.67l-17.96-24.79 6.28 40.64c.03.17.02.34-.02.5l-.02.1c-.04.16-.11.32-.2.46l-.02.04-7.78 11.76a1.65 1.65 0 01-1.35.7h-15.66a1.6 1.6 0 01-1.59-1.37l-3.03-23.47-5.15 12.1c-.04.1-.09.18-.14.26l-7.79 11.76a1.65 1.65 0 01-1.34.7h-6.24a1.6 1.6 0 01-1.49-.97l-7.32-17.97-.86 5.85c-.03.16-.08.32-.16.47-.02.01-.02.04-.03.06l-.01.02-.02.03a.1.1 0 01-.02.03l-7.79 11.76a1.65 1.65 0 01-1.34.7h-15.59a1.59 1.59 0 01-1.55-1.14 1.56 1.56 0 01-.03-.68L262 16.2c.04-.2.12-.4.24-.59l7.78-11.76c.06-.09.15-.17.23-.24l.07-.08a.25.25 0 01.04-.02l.05-.03c.1-.08.22-.15.34-.2l.12-.06c.16-.04.32-.08.5-.08h15.42c.67 0 1.25.4 1.5 1l9.34 24.08 5.07-12.37c.05-.1.09-.2.14-.27l7.79-11.77.06-.08c.12-.15.27-.29.44-.4l.26-.1.14-.07c.14-.04.3-.06.44-.06h15.59c.8 0 1.47.57 1.59 1.34l1.18 7.66 5.42-8.27a.48.48 0 01.1-.12.9.9 0 01.12-.14 1.44 1.44 0 01.27-.2.43.43 0 01.07-.05l.13-.05.13-.05.12-.06c.14-.04.28-.06.42-.06h18.8a1.6 1.6 0 011.32.69l9.95 14.18 9.95-14.18a1.61 1.61 0 011.33-.69h18.8c.14 0 .28.02.42.06l.14.06.26.12c.04.02.08.06.12.1l.2.15.05.07.05.07.05.07a.8.8 0 01.1.13v.04l.04.1.01.06.04.11zM585.9 29.78c-2.39 0-4.62.49-6.6 1.45a.96.96 0 000 .41c-.04.38-.06.77-.06 1.16 0 8.52 6.04 14.47 14.7 14.47 4.58 0 9.3-2.18 12.3-5.7a1.61 1.61 0 011.77-.46 1.6 1.6 0 011.04 1.47v18.4c0 .16-.04.32-.08.47l-.08.16c-.02.08-.06.16-.1.24L601 73.6c-.2.32-.5.55-.87.65l-.4.12c-4.97 1.51-8.9 2.69-13.9 2.69a35.6 35.6 0 01-23.72-9.1 29.98 29.98 0 01-6.82-8.7v2.9c0 .12-.02.26-.06.38 0 .04 0 .06-.02.1-.04.12-.1.23-.16.34l-.02.04-.02.02-7.76 11.74a1.65 1.65 0 01-1.35.7h-15.66a1.6 1.6 0 01-1.6-1.56v-9.21l-6.65 10.05a1.64 1.64 0 01-1.34.7h-15.67a1.59 1.59 0 01-1.6-1.56V51.28h-11.66v10.86c0 .13-.02.27-.06.4l-.02.1-.16.33-.02.04-.02.02-7.77 11.74a1.65 1.65 0 01-1.34.7h-15.67a1.6 1.6 0 01-1.6-1.56V64.4l-6.08 9.19c-.2.3-.51.54-.87.65l-.4.11c-4.97 1.52-8.9 2.7-13.9 2.7a35.6 35.6 0 01-23.71-9.1c-6.76-5.99-10.2-13.88-10.2-23.47 0-19.68 10.5-29.3 15.55-33.93l.74-.69.37-.34C432.8 3.55 441.96 0 451.1 0c4.9 0 9.8 1.02 14.93 3.08a1.58 1.58 0 01.98 1.46v6.95l6.08-9.2a3.04 3.04 0 01.28-.3l.04-.03.07-.05c.05-.04.1-.08.15-.1l.05-.03.05-.03a1.27 1.27 0 01.27-.11c.03-.02.04-.03.07-.03.13-.02.24-.04.36-.04h15.67c.89 0 1.6.7 1.6 1.57v21.22h11.63v-9.47c0-.3.1-.59.25-.84l7.79-11.77a2.9 2.9 0 01.32-.33l.07-.06a.9.9 0 01.15-.1.4.4 0 00.05-.03l.05-.03c.08-.04.16-.08.24-.1a1.31 1.31 0 01.1-.04c.12-.02.24-.04.36-.04h15.67c.88 0 1.6.71 1.6 1.57v9.22l6.65-10.06c.08-.1.16-.2.24-.27a.27.27 0 01.04-.03l.04-.03.07-.06c.04-.04.1-.07.15-.1.02 0 .03-.02.05-.03l.05-.03c.08-.04.16-.08.24-.1l.03-.01a2.25 2.25 0 01.43-.06h15.67c.88 0 1.6.7 1.6 1.56v26.2c2.71-6.8 7.2-14.45 13.83-19.38A34.68 34.68 0 01593.09 0c4.92 0 9.79 1.02 14.97 3.08a1.58 1.58 0 01.98 1.46v18.4c0 .15-.03.29-.07.43l-.01.04-.04.08-.04.08c-.02.08-.06.16-.1.23L601 35.57a1.63 1.63 0 01-2.63.08c-2.79-3.67-7.45-5.87-12.48-5.87zm-121.3 11.46c.15-.07.3-.13.47-.17v-14.7l-6.08 9.2a1.6 1.6 0 01-1.29.7 1.55 1.55 0 01-1.34-.62c-2.79-3.67-7.45-5.87-12.48-5.87-2.39 0-4.62.49-6.6 1.45l-.02.2-.02.23c-.04.38-.06.76-.06 1.14 0 8.53 6.04 14.47 14.7 14.47 4.58 0 9.3-2.18 12.3-5.7.12-.12.25-.24.4-.33h.03z" fill="#EB3D3E"/><path d="M38.58 27.65l-4.01-1.18c-2.87-.9-8.1-2.57-8.1-7.12 0-4.07 4.22-6.5 8.3-6.5 3.37 0 6.82 1.1 9.85 3.1l4.67-8.88a40.55 40.55 0 00-16.73-3.95c-11.48 0-19.2 7.33-19.2 18.25 0 10.43 5.76 12.55 15.15 15.16l.5.14c3.55.98 10.2 2.8 10.2 8.09 0 5.16-4.78 7.52-9.2 7.52-4.47 0-8.88-1.7-13.42-5.24l-5.11 9.43a36.1 36.1 0 0019.1 5.67c6.34 0 12.05-1.84 16.09-5.18 3.77-3.12 5.67-8.07 5.67-14.69-.02-7.46-4.13-11.85-13.76-14.61zm61.39 6.56c0 6.15 0 17.62-12.24 17.62S75.5 40.38 75.5 34.21V4.7H63.02v31.62c0 7.74.44 14.55 5.83 19.7 4.05 3.9 10.94 6.13 18.88 6.13 7.95 0 14.83-2.24 18.88-6.13 5.4-5.14 5.84-11.96 5.84-19.72V4.67H99.97v29.54zm31.38-22a28.88 28.88 0 00-8.43 20.53c0 8.66 3.07 15.77 9.15 21.15 6 5.35 13.64 8.3 21.56 8.3 4.3 0 7.71-.97 12.24-2.35V46.27a19.92 19.92 0 01-11.91 4.15c-10.56 0-17.92-7.25-17.92-17.62 0-10.39 7.42-17.93 17.68-17.93a19.4 19.4 0 0112.15 4.16V5.6a34.73 34.73 0 00-12.72-2.48 31.4 31.4 0 00-21.8 9.1zm73.32 17.86l21.79-25.38h-15.2l-18.48 23.73a1.57 1.57 0 01-1.27.6h-.16a1.59 1.59 0 01-1.6-1.56V4.67h-12.48v55.9h12.48V36.55a1.6 1.6 0 011.6-1.57h.16c.5 0 .96.22 1.27.6l19.76 24.99h16.15l-24-28.52a1.47 1.47 0 01-.02-1.98zm108.4-23.8L300.5 36.81a1.66 1.66 0 01-1.5.99 1.61 1.61 0 01-1.5-1L285.69 6.26H272.7l-9.69 55.9h12.32l4.84-32.64a1.6 1.6 0 011.58-1.34h.16a1.6 1.6 0 011.48.98l13.45 33h4.09l14.06-33.02a1.57 1.57 0 011.49-.96h.16a1.6 1.6 0 011.58 1.38l4.21 32.6h12.4l-8.62-55.9h-13.14zm55.4 15.35c-.6.85-2.04.85-2.62 0l-10.8-15.37H340.2l20.44 28.22c.2.26.3.58.3.9v26.77h12.48V35.4c0-.33.1-.65.3-.9l20.45-28.22h-14.87l-10.81 15.36zm60.84-9.4a28.88 28.88 0 00-8.43 20.52c0 8.66 3.07 15.77 9.15 21.15a32.4 32.4 0 0021.57 8.3c4.29 0 7.7-.97 12.23-2.35V46.27a19.9 19.9 0 01-11.91 4.15c-10.56 0-17.92-7.25-17.92-17.62 0-10.39 7.42-17.93 17.67-17.93a19.4 19.4 0 0112.16 4.16V5.6a34.73 34.73 0 00-12.72-2.48c-8 0-16.15 3.4-21.8 9.1zm85.04 13.69a1.6 1.6 0 01-1.6 1.57H490.1a1.6 1.6 0 01-1.6-1.57V4.69h-12.48v55.9h12.48V37.96c0-.86.72-1.57 1.6-1.57h22.63c.89 0 1.6.71 1.6 1.57V60.6h12.49V4.69h-12.48v21.22zm37.74-21.22H539.6v55.9h12.48V4.7zm41.56 10.18a19.4 19.4 0 0112.16 4.16V5.6a34.73 34.73 0 00-12.72-2.48c-8 0-16.15 3.4-21.8 9.08a28.87 28.87 0 00-8.43 20.52c0 8.66 3.07 15.77 9.14 21.15a32.4 32.4 0 0021.57 8.3c4.3 0 7.7-.97 12.24-2.35V46.25a19.96 19.96 0 01-11.91 4.15c-10.56 0-17.92-7.25-17.92-17.62 0-10.37 7.44-17.91 17.67-17.91z" fill="#F79BC1"/></g><path d="M447.3 262.92c52.92-24.15 76.25-86.67 52.12-139.64-24.13-52.96-86.6-76.32-139.52-52.16-52.92 24.15-76.26 86.67-52.12 139.64 24.13 52.96 86.6 76.32 139.52 52.16z" fill="#fff"/><path d="M346.83 153.16c-2.14.97-4.67 1.09-7.58.35l-.37 5.72c3.6.55 7.25.05 10.46-1.41 2.99-1.37 5.38-3.5 6.52-6.08 1.13-2.32.87-5.17-.6-8.38a5.72 5.72 0 00-.68-1.24c-1.44-2.3-3.67-3.23-7.1-3.09-.15-.06-.36.04-.62.03-.11.05-.11.05-.26 0-.16-.07-.37.03-.64.02l-.1.05c-.11.05-.37.04-.48.09l-.1.05-2.07.3c-1.58.2-4.43.47-5.45-1.78-.93-2.03.57-4.14 2.5-5.01a9.29 9.29 0 015.37-.65l.25-5.4-.79-.04c-2.6.04-5.16.56-7.56 1.52l-.43.2c-5.56 2.53-7.53 7.83-5.1 13.17 2.34 5.13 5.6 4.93 10.68 4.17h.26c1.95-.24 5.55-.85 6.72 1.72 1.01 2.5-.7 4.71-2.83 5.68zm29.86-7.82c3.84-1.76 6.67-4.34 7.71-7.14 1.33-3.32.4-6.5-1.12-9.82l-.48-1.07-7.07-15.5-5.98 2.73 6.58 14.43c1.36 3 3.94 8.66-1.93 11.34-5.88 2.68-8.46-2.98-9.82-5.98L358 119.9l-5.98 2.73 7.06 15.5c1.7 3.74 3.48 7.07 7.16 8.36 2.9 1 6.6.6 10.45-1.15zm19.4-13.77c4.01 1.35 8.38 1.1 12.22-.67a18.6 18.6 0 005.33-3.85l-3.01-6.63a10.34 10.34 0 01-4.74 4.61c-5.02 2.3-10.15.38-12.5-4.76-.1-.25-.22-.5-.33-.74-1.82-4.86.08-9.73 4.78-11.88 2.13-.96 4.53-1.2 6.8-.64l-3.02-6.63a16.6 16.6 0 00-15.05 10.87 15.86 15.86 0 00.52 11.9c1.85 4.32 4.95 7.17 9 8.42zm28.81-10.7l-4.77-10.47a.8.8 0 01.4-1.1l.1-.04c.22-.1.49-.09.8.03l15.1 7.96 7.7-3.52-.98-.45-16.06-7.78-.83-.4c-.36-.22-.56-.65-.44-.96l4.82-17.18-7.27 3.31-3.65 15.5c-.01.25-.17.46-.5.6l-.1.05a.8.8 0 01-.63.03.8.8 0 01-.46-.44L413 94.8l-5.98 2.73 12.47 27.37 5.98-2.73-.58-1.28zm-27.75 62.01l-.02-2.32-.5-16.94c-.04-.37.23-.63.55-.77l.1-.05c.44-.2.9-.02 1.05.3l9.34 15.1 5.98-2.72-13.55-20.68L397 150l-6.3 2.88.84 17.7c.03.37-.19.72-.56.76a.87.87 0 01-.99-.19l-12.48-12.38-6.2 2.82 7.56 29.62 5.88-2.69-1.03-3.66-3.88-13.34c-.1-.47.13-.84.45-.98l.1-.05a.88.88 0 011 .2l13.77 13.21 2.02-.92-.04-.1zm25.02-44.48l-1.72 9.82a.9.9 0 01-.9.7.88.88 0 01-.38-.11l-8.54-5.15-7.15 3.27 16.11 9.3c.16.06.25.28.3.38l6 13.15 5.98-2.72-5.75-12.62-.25-.54c-.05-.1-.14-.32-.08-.47l3.54-18.28-7.16 3.27zm-45.06 73a15.85 15.85 0 00.52 11.9c1.94 4.28 5 7.02 9.1 8.38 4.01 1.34 8.38 1.1 12.21-.67a18.54 18.54 0 005.35-3.86l-3.02-6.63a12.57 12.57 0 01-2.64 3.27c-.64.55-1.34 1-2.1 1.35-5.02 2.29-10.16.37-12.5-4.76l-.33-.75c-1.83-4.85.08-9.73 4.78-11.87a10.5 10.5 0 016.8-.65l-3.02-6.63a16.67 16.67 0 00-15.16 10.92zm43.87-11.89a.8.8 0 01.03.63.8.8 0 01-.43.46l-3.74 1.7-7.16 3.27a.82.82 0 01-.63.03.8.8 0 01-.46-.43l-4.72-10.38-5.99 2.74 12.48 27.37 5.98-2.73-2.44-5.35-2.63-5.77a.81.81 0 01-.03-.64.8.8 0 01.44-.45l10.9-4.97a.78.78 0 01.63-.04.8.8 0 01.45.44l5.07 11.12 5.98-2.73-12.47-27.37-5.98 2.73 4.72 10.37zm20.25 11.3l5.98-2.74-2.83-6.2-1.5-3.31-8.2-17.96-5.97 2.73 12.52 27.48zm4.35-30.66a15.55 15.55 0 00.52 11.9c1.95 4.27 5 7.02 9.1 8.37 4.01 1.35 8.38 1.1 12.22-.67a18.55 18.55 0 005.34-3.85l-3.02-6.63a10.42 10.42 0 01-4.85 4.66c-5.01 2.3-10.15.38-12.49-4.76l-.34-.74c-1.82-4.86.09-9.73 4.79-11.88 2.13-.97 4.52-1.2 6.8-.65l-3.02-6.63c-2.3.1-4.54.64-6.63 1.6a16.4 16.4 0 00-8.42 9.28z" fill="#F79BC1"/><path d="M446.77 113.09c-.05-.1-.2-.17-.25-.28l-17.97-8.84 3.14-11.25.06-.15 1.1-7.48-.05-.11-.04-.1-.05-.11-.05-.1-.05-.12-.05-.1-.05-.11-.05-.1-.15-.06-.05-.11-.16-.06-.1.05s-.11.05-.16-.06l-.1.05-.22.1-9.3 4.24c-.2.1-.37.3-.49.61l-3.12 13.83-4.43-9.73a.8.8 0 00-1.09-.41l-7.48 3.41-.21.1-.1.05s-.12.05-.07.15l-.06.16-.82 5.54-1.32-2.88a1 1 0 00-.77-.56c-2.9.16-5.49.7-7.84 1.77l-.21.1c-6.1 2.78-8 6.23-9.76 10.01-1.6 3.57-1.98 8.13-1.8 11.92l-5.55-12.18a.8.8 0 00-.78-.49c-.1 0-.21.03-.3.08l-7.49 3.41-.2.1-.12.05s-.1.05-.06.15l-.05.16-1.11 7.48c-.06.16.04.37.09.48l6.96 15.29.59 1.28-.54.24c-3.63 1.66-5.5-.46-7.6-5.06l-6.9-15.18a.8.8 0 00-1.1-.4l-7.48 3.41-.21.1-.1.05s-.11.04-.06.15l-.06.16-1.11 7.48c-.06.15.04.37.09.47l3.8 8.34-.31-.11c-.16-.06-.32-.12-.37-.23l-.3-.12c-.16-.05-.31-.11-.42-.06-.16-.06-.27-.01-.42-.07-.16-.06-.27 0-.42-.07-.16-.05-.26 0-.42-.06-.15-.06-.26-.01-.42-.07-.1.05-.26-.01-.26-.01-.15-.06-.26-.01-.52-.02l-.1.05c-.8-.03-1.43 0-2.17.08.63-2.87 1.2-8.42.99-11.43l-.1-.21-.05-.1-.04-.12c-.05-.1-.26-.27-.3-.38-.37-.22-1.26-.2-2.37-.08a21.2 21.2 0 00-8 1.71l-.42.2-.75.34a14.81 14.81 0 00-7.92 10.07c-.93 3.92-.3 8.4 1.5 12.36 2.1 4.6 5.1 5.55 8.05 5.5l-1.37 11.99c-.07.42.23.8.7.97 4.22.78 8.5.25 12.13-1.4 3.42-1.56 6.03-4.05 7.34-6.84l.12-.31c.68-1.6 2.38-4.97 2.41-8.86a11 11 0 005.77 4.74c4.36 1.62 9.25-.1 11.7-1.22a18.44 18.44 0 008.5-8c.55-1.03 2.81-5.42 2.47-10.43 1.9 2.23 4.39 3.87 7.18 4.73a18.51 18.51 0 0013.37-.68c2.35-1.07 4.03-2.48 6.04-4.3l-.05-.11c.22-.1.22-.36.28-.52l.83-5.54 2 4.38a.81.81 0 00.46.44.79.79 0 00.63-.03l7.48-3.42c.2-.1.48-.34.49-.6l1.1-7.49c-.04-.1.07-.15.02-.26l7.47 3.95c.2.16.47.17.8.03l9.71-4.44c.22-.1.49-.35.5-.61l1.1-7.48-.04-.11-.05-.1-.05-.12-.05-.1c.01-.26.01-.26-.04-.37zm-38.46 17.82a16.56 16.56 0 01-12.22.66c-4.1-1.36-7.15-4.1-9.1-8.37a15.35 15.35 0 01-.52-11.9c1.4-4 4.57-7.52 8.42-9.27a19.94 19.94 0 016.63-1.6l3.02 6.62a10.24 10.24 0 00-6.8.65 8.91 8.91 0 00-4.98 11.18c.1.22.2.43.19.7l.34.74c2.34 5.13 7.47 7.05 12.5 4.76a10.09 10.09 0 004.73-4.61l3.02 6.62a17.54 17.54 0 01-5.23 3.82zm1.62-13.15c-.1.05-.16.2-.11.32a8.69 8.69 0 01-4.61 5.46c-4.17 1.9-8.37.33-10.27-3.84l-.24-.54-.1-.21a8.64 8.64 0 012.86-2.21 7.96 7.96 0 017.3.16c.2.16.58.12.79.02.21-.1.48-.35.5-.61l.82-5.55 3.17 6.96-.1.04zm-33.6 11.21l-6.58-14.44 5.98-2.72 7.07 15.5.48 1.07c1.4 3.36 2.45 6.5 1.12 9.82-1.04 2.8-3.87 5.38-7.71 7.14-3.85 1.75-7.65 2.2-10.45 1.15-3.73-1.4-5.46-4.61-7.16-8.36l-7.06-15.5 5.98-2.73 6.58 14.43c1.36 3 3.94 8.66 9.82 5.98 5.87-2.68 3.29-8.35 1.93-11.34zm-21.75 13.16c.3.37.5.8.69 1.23 1.46 3.2 1.62 6.1.6 8.38a13.32 13.32 0 01-6.53 6.08 18.79 18.79 0 01-10.46 1.41l.37-5.72c2.91.74 5.44.62 7.58-.36 2.13-.97 3.84-3.17 2.72-5.63-1.17-2.57-4.81-2.07-6.72-1.71l-.26-.01c-5.07.76-8.33.96-10.67-4.17-2.3-5.03-.65-9.91 4.18-12.63l1.07-.49.42-.2a20.7 20.7 0 017.57-1.51l.79.03-.25 5.4a9.6 9.6 0 00-5.38.65c-1.92.88-3.42 2.99-2.49 5.02 1.02 2.24 3.87 1.97 5.45 1.77l2.06-.3.1-.05c.12-.04.38-.03.48-.08l.11-.05c.26 0 .37-.04.63-.03.11-.05.11-.05.27 0 .26.02.36-.03.63-.02 3.37-.25 5.6.67 7.04 2.99zm76.06-55.39l-4.82 17.18c-.06.42.13.85.44.97l.83.4 16.06 7.77.98.46-7.7 3.51-15.1-7.95c-.2-.17-.47-.18-.79-.03l-.1.05a.8.8 0 00-.41 1.09l4.77 10.47.59 1.29-5.98 2.73-12.38-27.16 5.99-2.73 5.06 11.12a.81.81 0 00.46.44.8.8 0 00.63-.03l.1-.05c.22-.1.38-.3.5-.62l3.56-15.7 7.26-3.31.05.1zm-5.88 92.45l7.48-3.42c.2-.1.48-.34.49-.6l1.1-7.49.07-.15-.1-.22-6.04-13.25 2.45-12.75 1.11-7.48-.05-.1-.05-.11-.05-.1-.05-.12-.04-.1-.05-.1-.05-.11-.05-.11s-.05-.11-.16-.06l-.04-.1-.16-.07-.1.05s-.11.05-.16-.06l-.11.05-.21.1L421 137c-.21.1-.48.35-.5.61l-1.63 9.15-7.98-4.76c-.2-.17-.57-.13-.78-.03l-8.98 4.1-.21.1-.1.04-.12.05-.1.05s-.1.05-.06.15l-.06.16.05.1-.71 5.24-2.24-3.5c-.3-.38-.72-.45-1.04-.3l-7.48 3.41-.21.1-.1.05s-.12.05-.06.16l-.11.05-.06.15.05.1-1.11 7.49s.05.1-.06.15l.32 7.22-9.9-9.82a.88.88 0 00-.98-.2l-7.38 3.37-.2.1-.12.05c-.1.05-.05.15-.16.2l-.06.16-1.1 7.48c-.06.15-.02.26.03.37l8.6 31.33c.1.22.2.43.5.54.21.17.47.18.69.08l7.47-3.41c.22-.1.49-.35.5-.62l1.1-7.47c-.04-.11.06-.16.02-.27l-.9-3.08 7.53 7.16c.25.27.67.34 1 .2l2.88-1.33c.2-.1.48-.34.49-.6l1.1-7.49s-.04-.1.06-.15l-.27-7.11 6.76 10.86c.2.43.72.45 1.04.3l7.48-3.41c.21-.1.48-.35.5-.61l1.1-7.48c-.05-.11.06-.16.01-.27l-.1-.21-12.2-18.84 14.21 8.24 6.24 13.68c.15.32.66.6 1.09.4zm-4.26-30.87l1.72-9.82 7.16-3.26-3.6 18.17c-.05.15.05.37.1.47l.24.54 5.75 12.62-5.99 2.72-5.94-13.04c-.05-.1-.15-.32-.3-.38l-16.11-9.3 7.15-3.27 8.54 5.14a1.07 1.07 0 001.28-.59zm-30.71 22.94a.88.88 0 001.36-.12 1 1 0 00.18-.46l-.84-17.7 6.3-2.87 3.1 4.79 13.54 20.67-5.98 2.74-9.34-15.12c-.2-.42-.72-.44-1.04-.3l-.1.05a1 1 0 00-.56.77l.5 16.95.02 2.32-1.92.88-13.76-13.22a.88.88 0 00-1-.2l-.1.05c-.43.2-.6.66-.46.98l4.04 13.4 1.03 3.66-5.88 2.69-7.77-29.52 6.2-2.83 12.48 12.39zm71.37-3.65c-2.7.03-5.38.64-7.84 1.77a17.87 17.87 0 00-9.3 10.18c-2.08 3.93-2.5 8.64-2.28 12.54l-5.85-12.83a.81.81 0 00-.78-.49c-.1.01-.2.04-.3.09l-7.48 3.41-.21.1-.11.05s-.1.04-.06.15l-.06.16-1.04 7.06-2.3-5.03a.79.79 0 00-.45-.43.8.8 0 00-.63.03l-7.48 3.41-.21.1-.1.05s-.11.04-.06.15l-.06.16-1.11 7.48c-.06.15.04.37.09.47l2.1 4.6-5.56 2.53-4.73-10.37a.8.8 0 00-1.09-.4l-7.48 3.41-.21.1-.1.05s-.11.05-.07.15l-.05.16-.84 5.8-1.56-3.42a.98.98 0 00-.77-.55c-2.7.03-5.38.64-7.84 1.77a18.5 18.5 0 00-9.6 10.07l-.3.78c-1.43 3.36-4.3 10.36.13 20.09 2.14 4.7 5.5 7.82 10.17 9.3a18.52 18.52 0 0013.37-.67c2.35-1.08 4.03-2.49 6.04-4.31l.16-.2c.22-.1.23-.37.29-.52l.83-5.8 2.15 4.7a.81.81 0 00.46.43.79.79 0 00.63-.03l7.47-3.41c.22-.1.5-.35.5-.61l1.1-7.48.07-.16-.1-.21-2.44-5.35 5.56-2.53 5.06 11.12a.8.8 0 001.1.4l7.47-3.41c.22-.1.49-.35.5-.61l1.04-7.07 2.29 5.03a.8.8 0 001.08.4l7.48-3.4c.22-.1.49-.36.5-.62l1.1-7.48.06-.16-.1-.2-.63-1.4a15.32 15.32 0 005.26 2.77 18.54 18.54 0 0013.37-.68c2.35-1.07 4.03-2.49 6.04-4.3l.17-.21c.21-.1.22-.36.28-.52l1.1-7.48-.04-.1-.05-.11-.1-.22-4.1-8.98a.87.87 0 00-1.33-.3.92.92 0 00-.3.4 8.89 8.89 0 01-4.6 5.47c-4.17 1.9-8.37.33-10.27-3.84l-.24-.54-.1-.21a8.63 8.63 0 012.87-2.21 7.95 7.95 0 017.3.15c.2.17.57.13.78.03.21-.1.49-.35.5-.61l1.1-7.48-.05-.11-.05-.1-.1-.22-4.08-8.98c-.35-.49-.6-.76-.98-.72zm-60.7 50.57a8.69 8.69 0 01-4.61 5.46c-4.17 1.9-8.37.33-10.27-3.84l-.24-.53-.1-.22a8.63 8.63 0 012.87-2.2 7.96 7.96 0 017.3.15c.2.16.56.12.78.03.21-.1.48-.35.5-.62l.83-5.8 3.27 7.16c-.22.1-.33.15-.33.4zm-5.28-11.03a10.25 10.25 0 00-6.8.66 8.91 8.91 0 00-4.98 11.18c.1.21.2.42.19.69l.34.74c2.34 5.14 7.47 7.06 12.5 4.76a10.27 10.27 0 004.74-4.62l3 6.64c-1.84 1.62-3.3 2.93-5.33 3.86a16.77 16.77 0 01-12.21.66c-4.1-1.35-7.16-4.1-9.11-8.37a15.37 15.37 0 01-.52-11.9c1.4-4 4.58-7.51 8.42-9.27a19.89 19.89 0 016.63-1.6l3.02 6.63.1-.06zm33.55 9.36l-5.07-11.12a.8.8 0 00-1.09-.4l-10.9 4.97a.8.8 0 00-.48.77c0 .11.03.22.08.32l2.63 5.77 2.44 5.35-5.98 2.73-12.48-27.37 5.99-2.74 4.72 10.38a.8.8 0 001.1.4l7.15-3.26 3.74-1.71a.8.8 0 00.4-1.09l-4.72-10.37 5.98-2.73 12.47 27.37-5.98 2.73zm41.01-27.24l3.02 6.63c-1.84 1.61-3.3 2.93-5.34 3.85a16.57 16.57 0 01-12.21.67c-4.1-1.36-7.16-4.1-9.1-8.37a15.95 15.95 0 01-.63-11.86c1.4-4 4.57-7.5 8.42-9.26a19.9 19.9 0 016.62-1.6l3.02 6.62a10.24 10.24 0 00-6.8.65 8.92 8.92 0 00-4.97 11.18c.1.22.2.43.19.7l.34.74c2.34 5.13 7.47 7.05 12.49 4.76a10.5 10.5 0 004.95-4.71zm-28.51 21.54l-12.47-27.38 5.98-2.73 8.13 17.86 1.51 3.31 2.83 6.2-5.98 2.74z" fill="#EB3D3E"/></g><defs><clipPath id="clip0"><path fill="#fff" d="M0 0h610v272H0z"/></clipPath><clipPath id="clip1"><path fill="#fff" d="M0 0h609v77.05H0z"/></clipPath></defs></svg>